# xmcd
#
# Track frame offsets: 
#        150
#        12361
#        25448
#        35684
#        46947
#        59958
#        72696
#        87208
#        99267
#        113460
#        124474
#        135214
#        147979
#        159424
#        170574
#        182123
#        191803
#
# Disc length: 2697 seconds
#
# Revision: 0
# Processed by: cddbd v1.5.2PL0 Copyright (c) Steve Scherf et al.
# Submitted via: ExactAudioCopy v1.3
#
DISCID=f60a8711
DTITLE=The Platters - Sus grandes exitos y sus grabaciones en español-
DTITLE=CD2
DYEAR=2002
DGENRE=Pop
TTITLE0=Helpless
TTITLE1=One In A Million
TTITLE2=My Serenade
TTITLE3=(You've Got) The Magic Touch
TTITLE4=Enchanted
TTITLE5=It's Raining Outside
TTITLE6=Harbor Lights
TTITLE7=(By The) Sleepy Lagoon
TTITLE8=If I Didn't Care
TTITLE9=EBB Tide
TTITLE10=Red Sails In The Sunset
TTITLE11=To Each His Own
TTITLE12=It's Magic
TTITLE13=Summertime
TTITLE14=In A Little Spanish Town
TTITLE15=Amor
TTITLE16=Solamente Tu
EXTD=
EXTT0=
EXTT1=
EXTT2=
EXTT3=
EXTT4=
EXTT5=
EXTT6=
EXTT7=
EXTT8=
EXTT9=
EXTT10=
EXTT11=
EXTT12=
EXTT13=
EXTT14=
EXTT15=
EXTT16=
PLAYORDER=
